<mxfile host="app.diagrams.net" agent="Mozilla/5.0 (Windows NT 10.0; Win64; x64) AppleWebKit/537.36 (KHTML, like Gecko) Chrome/126.0.0.0 Safari/537.36" version="24.7.6">
  <diagram name="Trang-1" id="vnEy6MEqkI8eoS3qaJxe">
    <mxGraphModel grid="1" page="1" gridSize="10" guides="1" tooltips="1" connect="1" arrows="1" fold="1" pageScale="1" pageWidth="827" pageHeight="1169" math="0" shadow="0">
      <root>
        <mxCell id="0" />
        <mxCell id="1" parent="0" />
        <mxCell id="AMUbEwbBqHvnxKV83x1e-1" value="Employee&amp;nbsp;" style="swimlane;fontStyle=1;align=center;verticalAlign=top;childLayout=stackLayout;horizontal=1;startSize=26;horizontalStack=0;resizeParent=1;resizeParentMax=0;resizeLast=0;collapsible=1;marginBottom=0;whiteSpace=wrap;html=1;" vertex="1" parent="1">
          <mxGeometry x="-760" y="40" width="200" height="220" as="geometry" />
        </mxCell>
        <mxCell id="AMUbEwbBqHvnxKV83x1e-2" value="- name: String&lt;div&gt;- id: String&lt;/div&gt;&lt;div&gt;- hireDay: String&lt;/div&gt;" style="text;strokeColor=none;fillColor=none;align=left;verticalAlign=top;spacingLeft=4;spacingRight=4;overflow=hidden;rotatable=0;points=[[0,0.5],[1,0.5]];portConstraint=eastwest;whiteSpace=wrap;html=1;" vertex="1" parent="AMUbEwbBqHvnxKV83x1e-1">
          <mxGeometry y="26" width="200" height="94" as="geometry" />
        </mxCell>
        <mxCell id="AMUbEwbBqHvnxKV83x1e-3" value="" style="line;strokeWidth=1;fillColor=none;align=left;verticalAlign=middle;spacingTop=-1;spacingLeft=3;spacingRight=3;rotatable=0;labelPosition=right;points=[];portConstraint=eastwest;strokeColor=inherit;" vertex="1" parent="AMUbEwbBqHvnxKV83x1e-1">
          <mxGeometry y="120" width="200" height="8" as="geometry" />
        </mxCell>
        <mxCell id="AMUbEwbBqHvnxKV83x1e-4" value="&lt;div&gt;&lt;span style=&quot;background-color: initial;&quot;&gt;+&amp;nbsp;&lt;/span&gt;&lt;span style=&quot;background-color: initial;&quot;&gt;Employee (String,&lt;/span&gt;&lt;span style=&quot;background-color: initial;&quot;&gt;String,&lt;/span&gt;&lt;span style=&quot;background-color: initial;&quot;&gt;String&lt;/span&gt;&lt;span style=&quot;background-color: initial;&quot;&gt;):&lt;/span&gt;&lt;br&gt;&lt;/div&gt;+ getter():&lt;div&gt;+ setter():&amp;nbsp;&lt;/div&gt;&lt;div&gt;+ toString():&lt;/div&gt;&lt;div&gt;&lt;br&gt;&lt;/div&gt;" style="text;strokeColor=none;fillColor=none;align=left;verticalAlign=top;spacingLeft=4;spacingRight=4;overflow=hidden;rotatable=0;points=[[0,0.5],[1,0.5]];portConstraint=eastwest;whiteSpace=wrap;html=1;" vertex="1" parent="AMUbEwbBqHvnxKV83x1e-1">
          <mxGeometry y="128" width="200" height="92" as="geometry" />
        </mxCell>
        <mxCell id="AMUbEwbBqHvnxKV83x1e-5" value="ProductionWorker" style="swimlane;fontStyle=1;align=center;verticalAlign=top;childLayout=stackLayout;horizontal=1;startSize=26;horizontalStack=0;resizeParent=1;resizeParentMax=0;resizeLast=0;collapsible=1;marginBottom=0;whiteSpace=wrap;html=1;" vertex="1" parent="1">
          <mxGeometry x="-440" y="40" width="320" height="220" as="geometry" />
        </mxCell>
        <mxCell id="AMUbEwbBqHvnxKV83x1e-6" value="- shift: int&lt;div&gt;(1: the day, 2: the night)&lt;br&gt;&lt;div&gt;- hourPayRate: double&lt;/div&gt;&lt;/div&gt;" style="text;strokeColor=none;fillColor=none;align=left;verticalAlign=top;spacingLeft=4;spacingRight=4;overflow=hidden;rotatable=0;points=[[0,0.5],[1,0.5]];portConstraint=eastwest;whiteSpace=wrap;html=1;" vertex="1" parent="AMUbEwbBqHvnxKV83x1e-5">
          <mxGeometry y="26" width="320" height="94" as="geometry" />
        </mxCell>
        <mxCell id="AMUbEwbBqHvnxKV83x1e-7" value="" style="line;strokeWidth=1;fillColor=none;align=left;verticalAlign=middle;spacingTop=-1;spacingLeft=3;spacingRight=3;rotatable=0;labelPosition=right;points=[];portConstraint=eastwest;strokeColor=inherit;" vertex="1" parent="AMUbEwbBqHvnxKV83x1e-5">
          <mxGeometry y="120" width="320" height="8" as="geometry" />
        </mxCell>
        <mxCell id="AMUbEwbBqHvnxKV83x1e-8" value="&lt;div&gt;&lt;span style=&quot;background-color: initial;&quot;&gt;+&amp;nbsp;ProductionWorker(&lt;/span&gt;&lt;span style=&quot;background-color: initial;&quot;&gt;String, String, String,&lt;/span&gt;&lt;span style=&quot;background-color: initial;&quot;&gt;int,double):&lt;/span&gt;&lt;br&gt;&lt;/div&gt;&lt;div&gt;+ shiftMode(int): String&lt;/div&gt;+ getter():&lt;div&gt;+ setter():&amp;nbsp;&lt;/div&gt;&lt;div&gt;+ toString():&lt;br&gt;&lt;/div&gt;" style="text;strokeColor=none;fillColor=none;align=left;verticalAlign=top;spacingLeft=4;spacingRight=4;overflow=hidden;rotatable=0;points=[[0,0.5],[1,0.5]];portConstraint=eastwest;whiteSpace=wrap;html=1;" vertex="1" parent="AMUbEwbBqHvnxKV83x1e-5">
          <mxGeometry y="128" width="320" height="92" as="geometry" />
        </mxCell>
        <mxCell id="AMUbEwbBqHvnxKV83x1e-9" value="Extends" style="endArrow=block;endSize=16;endFill=0;html=1;rounded=0;exitX=0;exitY=0.5;exitDx=0;exitDy=0;entryX=1;entryY=0.5;entryDx=0;entryDy=0;" edge="1" parent="1" source="AMUbEwbBqHvnxKV83x1e-6" target="AMUbEwbBqHvnxKV83x1e-2">
          <mxGeometry width="160" relative="1" as="geometry">
            <mxPoint x="380" y="220" as="sourcePoint" />
            <mxPoint x="290" y="240" as="targetPoint" />
          </mxGeometry>
        </mxCell>
        <mxCell id="AMUbEwbBqHvnxKV83x1e-10" value="GradedActivity" style="swimlane;fontStyle=1;align=center;verticalAlign=top;childLayout=stackLayout;horizontal=1;startSize=26;horizontalStack=0;resizeParent=1;resizeParentMax=0;resizeLast=0;collapsible=1;marginBottom=0;whiteSpace=wrap;html=1;" vertex="1" parent="1">
          <mxGeometry x="360" y="38" width="160" height="640" as="geometry" />
        </mxCell>
        <mxCell id="AMUbEwbBqHvnxKV83x1e-11" value="-&amp;nbsp;score(): double" style="text;strokeColor=none;fillColor=none;align=left;verticalAlign=top;spacingLeft=4;spacingRight=4;overflow=hidden;rotatable=0;points=[[0,0.5],[1,0.5]];portConstraint=eastwest;whiteSpace=wrap;html=1;" vertex="1" parent="AMUbEwbBqHvnxKV83x1e-10">
          <mxGeometry y="26" width="160" height="254" as="geometry" />
        </mxCell>
        <mxCell id="AMUbEwbBqHvnxKV83x1e-12" value="" style="line;strokeWidth=1;fillColor=none;align=left;verticalAlign=middle;spacingTop=-1;spacingLeft=3;spacingRight=3;rotatable=0;labelPosition=right;points=[];portConstraint=eastwest;strokeColor=inherit;" vertex="1" parent="AMUbEwbBqHvnxKV83x1e-10">
          <mxGeometry y="280" width="160" height="8" as="geometry" />
        </mxCell>
        <mxCell id="AMUbEwbBqHvnxKV83x1e-13" value="&lt;div&gt;+ setScore(double): void&lt;/div&gt;&lt;div&gt;+ getScore(): double&lt;/div&gt;+ getGrade(): char" style="text;strokeColor=none;fillColor=none;align=left;verticalAlign=top;spacingLeft=4;spacingRight=4;overflow=hidden;rotatable=0;points=[[0,0.5],[1,0.5]];portConstraint=eastwest;whiteSpace=wrap;html=1;" vertex="1" parent="AMUbEwbBqHvnxKV83x1e-10">
          <mxGeometry y="288" width="160" height="352" as="geometry" />
        </mxCell>
        <mxCell id="AMUbEwbBqHvnxKV83x1e-15" value="Q1" style="text;html=1;align=center;verticalAlign=middle;resizable=0;points=[];autosize=1;strokeColor=none;fillColor=none;" vertex="1" parent="1">
          <mxGeometry x="-800" y="8" width="40" height="30" as="geometry" />
        </mxCell>
        <mxCell id="AMUbEwbBqHvnxKV83x1e-16" value="Person" style="swimlane;fontStyle=1;align=center;verticalAlign=top;childLayout=stackLayout;horizontal=1;startSize=26;horizontalStack=0;resizeParent=1;resizeParentMax=0;resizeLast=0;collapsible=1;marginBottom=0;whiteSpace=wrap;html=1;" vertex="1" parent="1">
          <mxGeometry x="880" y="40" width="200" height="240" as="geometry" />
        </mxCell>
        <mxCell id="AMUbEwbBqHvnxKV83x1e-17" value="- name: String&lt;div&gt;- address: String&lt;/div&gt;&lt;div&gt;- phoneNum: String&lt;/div&gt;" style="text;strokeColor=none;fillColor=none;align=left;verticalAlign=top;spacingLeft=4;spacingRight=4;overflow=hidden;rotatable=0;points=[[0,0.5],[1,0.5]];portConstraint=eastwest;whiteSpace=wrap;html=1;" vertex="1" parent="AMUbEwbBqHvnxKV83x1e-16">
          <mxGeometry y="26" width="200" height="94" as="geometry" />
        </mxCell>
        <mxCell id="AMUbEwbBqHvnxKV83x1e-18" value="" style="line;strokeWidth=1;fillColor=none;align=left;verticalAlign=middle;spacingTop=-1;spacingLeft=3;spacingRight=3;rotatable=0;labelPosition=right;points=[];portConstraint=eastwest;strokeColor=inherit;" vertex="1" parent="AMUbEwbBqHvnxKV83x1e-16">
          <mxGeometry y="120" width="200" height="8" as="geometry" />
        </mxCell>
        <mxCell id="AMUbEwbBqHvnxKV83x1e-19" value="+ Person():&lt;div&gt;+ Person(String, String, String):&lt;br&gt;&lt;div&gt;+ Getter/setter():&lt;/div&gt;&lt;/div&gt;&lt;div&gt;+ toString():&lt;/div&gt;" style="text;strokeColor=none;fillColor=none;align=left;verticalAlign=top;spacingLeft=4;spacingRight=4;overflow=hidden;rotatable=0;points=[[0,0.5],[1,0.5]];portConstraint=eastwest;whiteSpace=wrap;html=1;" vertex="1" parent="AMUbEwbBqHvnxKV83x1e-16">
          <mxGeometry y="128" width="200" height="112" as="geometry" />
        </mxCell>
        <mxCell id="AMUbEwbBqHvnxKV83x1e-20" value="ShiftSupervisor" style="swimlane;fontStyle=1;align=center;verticalAlign=top;childLayout=stackLayout;horizontal=1;startSize=26;horizontalStack=0;resizeParent=1;resizeParentMax=0;resizeLast=0;collapsible=1;marginBottom=0;whiteSpace=wrap;html=1;" vertex="1" parent="1">
          <mxGeometry x="-760" y="358" width="200" height="210" as="geometry" />
        </mxCell>
        <mxCell id="AMUbEwbBqHvnxKV83x1e-21" value="-&amp;nbsp;annualSalary: double&lt;div&gt;-&amp;nbsp;annualProductionBonus: double&lt;/div&gt;" style="text;strokeColor=none;fillColor=none;align=left;verticalAlign=top;spacingLeft=4;spacingRight=4;overflow=hidden;rotatable=0;points=[[0,0.5],[1,0.5]];portConstraint=eastwest;whiteSpace=wrap;html=1;" vertex="1" parent="AMUbEwbBqHvnxKV83x1e-20">
          <mxGeometry y="26" width="200" height="94" as="geometry" />
        </mxCell>
        <mxCell id="AMUbEwbBqHvnxKV83x1e-22" value="" style="line;strokeWidth=1;fillColor=none;align=left;verticalAlign=middle;spacingTop=-1;spacingLeft=3;spacingRight=3;rotatable=0;labelPosition=right;points=[];portConstraint=eastwest;strokeColor=inherit;" vertex="1" parent="AMUbEwbBqHvnxKV83x1e-20">
          <mxGeometry y="120" width="200" height="8" as="geometry" />
        </mxCell>
        <mxCell id="AMUbEwbBqHvnxKV83x1e-23" value="+ ShiftSupervisor (&lt;span style=&quot;background-color: initial;&quot;&gt;String, String, String, double&lt;/span&gt;&lt;span style=&quot;background-color: initial;&quot;&gt;, double):&lt;/span&gt;&lt;div&gt;+ getter():&lt;div&gt;+ setter():&amp;nbsp;&lt;/div&gt;&lt;div&gt;+ toString():&lt;br&gt;&lt;/div&gt;&lt;/div&gt;" style="text;strokeColor=none;fillColor=none;align=left;verticalAlign=top;spacingLeft=4;spacingRight=4;overflow=hidden;rotatable=0;points=[[0,0.5],[1,0.5]];portConstraint=eastwest;whiteSpace=wrap;html=1;" vertex="1" parent="AMUbEwbBqHvnxKV83x1e-20">
          <mxGeometry y="128" width="200" height="82" as="geometry" />
        </mxCell>
        <mxCell id="AMUbEwbBqHvnxKV83x1e-24" value="Q2" style="text;html=1;align=center;verticalAlign=middle;resizable=0;points=[];autosize=1;strokeColor=none;fillColor=none;" vertex="1" parent="1">
          <mxGeometry x="-800" y="328" width="40" height="30" as="geometry" />
        </mxCell>
        <mxCell id="AMUbEwbBqHvnxKV83x1e-25" value="Extends" style="endArrow=block;endSize=16;endFill=0;html=1;rounded=0;exitX=0.5;exitY=0;exitDx=0;exitDy=0;entryX=0.496;entryY=1.002;entryDx=0;entryDy=0;entryPerimeter=0;" edge="1" parent="1" source="AMUbEwbBqHvnxKV83x1e-20" target="AMUbEwbBqHvnxKV83x1e-4">
          <mxGeometry width="160" relative="1" as="geometry">
            <mxPoint x="-580" y="400" as="sourcePoint" />
            <mxPoint x="-700" y="400" as="targetPoint" />
          </mxGeometry>
        </mxCell>
        <mxCell id="AMUbEwbBqHvnxKV83x1e-26" value="Q3" style="text;html=1;align=center;verticalAlign=middle;resizable=0;points=[];autosize=1;strokeColor=none;fillColor=none;" vertex="1" parent="1">
          <mxGeometry x="-480" y="328" width="40" height="30" as="geometry" />
        </mxCell>
        <mxCell id="AMUbEwbBqHvnxKV83x1e-27" value="TeamLeader" style="swimlane;fontStyle=1;align=center;verticalAlign=top;childLayout=stackLayout;horizontal=1;startSize=26;horizontalStack=0;resizeParent=1;resizeParentMax=0;resizeLast=0;collapsible=1;marginBottom=0;whiteSpace=wrap;html=1;" vertex="1" parent="1">
          <mxGeometry x="-440" y="358" width="320" height="210" as="geometry" />
        </mxCell>
        <mxCell id="AMUbEwbBqHvnxKV83x1e-28" value="- r&lt;span style=&quot;background-color: initial;&quot;&gt;equiredTrainingHours: int&lt;/span&gt;&lt;div&gt;- trainingHoursAttended: int&lt;/div&gt;" style="text;strokeColor=none;fillColor=none;align=left;verticalAlign=top;spacingLeft=4;spacingRight=4;overflow=hidden;rotatable=0;points=[[0,0.5],[1,0.5]];portConstraint=eastwest;whiteSpace=wrap;html=1;" vertex="1" parent="AMUbEwbBqHvnxKV83x1e-27">
          <mxGeometry y="26" width="320" height="104" as="geometry" />
        </mxCell>
        <mxCell id="AMUbEwbBqHvnxKV83x1e-29" value="" style="line;strokeWidth=1;fillColor=none;align=left;verticalAlign=middle;spacingTop=-1;spacingLeft=3;spacingRight=3;rotatable=0;labelPosition=right;points=[];portConstraint=eastwest;strokeColor=inherit;" vertex="1" parent="AMUbEwbBqHvnxKV83x1e-27">
          <mxGeometry y="130" width="320" height="8" as="geometry" />
        </mxCell>
        <mxCell id="AMUbEwbBqHvnxKV83x1e-30" value="&lt;div&gt;+&amp;nbsp;TeamLeader(String, String, String, int, double, int, int)&lt;/div&gt;+ getter():&lt;div&gt;+ setter():&amp;nbsp;&lt;/div&gt;&lt;div&gt;+ toString():&lt;/div&gt;" style="text;strokeColor=none;fillColor=none;align=left;verticalAlign=top;spacingLeft=4;spacingRight=4;overflow=hidden;rotatable=0;points=[[0,0.5],[1,0.5]];portConstraint=eastwest;whiteSpace=wrap;html=1;" vertex="1" parent="AMUbEwbBqHvnxKV83x1e-27">
          <mxGeometry y="138" width="320" height="72" as="geometry" />
        </mxCell>
        <mxCell id="AMUbEwbBqHvnxKV83x1e-31" value="Extends" style="endArrow=block;endSize=16;endFill=0;html=1;rounded=0;exitX=0.5;exitY=0;exitDx=0;exitDy=0;entryX=0.492;entryY=0.967;entryDx=0;entryDy=0;entryPerimeter=0;" edge="1" parent="1" source="AMUbEwbBqHvnxKV83x1e-27" target="AMUbEwbBqHvnxKV83x1e-8">
          <mxGeometry width="160" relative="1" as="geometry">
            <mxPoint x="-280" y="600" as="sourcePoint" />
            <mxPoint x="-280" y="290" as="targetPoint" />
          </mxGeometry>
        </mxCell>
        <mxCell id="AMUbEwbBqHvnxKV83x1e-32" value="Q4" style="text;html=1;align=center;verticalAlign=middle;resizable=0;points=[];autosize=1;strokeColor=none;fillColor=none;" vertex="1" parent="1">
          <mxGeometry y="10" width="40" height="30" as="geometry" />
        </mxCell>
        <mxCell id="AMUbEwbBqHvnxKV83x1e-33" value="Essay" style="swimlane;fontStyle=1;align=center;verticalAlign=top;childLayout=stackLayout;horizontal=1;startSize=26;horizontalStack=0;resizeParent=1;resizeParentMax=0;resizeLast=0;collapsible=1;marginBottom=0;whiteSpace=wrap;html=1;" vertex="1" parent="1">
          <mxGeometry x="600" y="38" width="200" height="200" as="geometry" />
        </mxCell>
        <mxCell id="AMUbEwbBqHvnxKV83x1e-34" value="grammar: int&lt;div&gt;spelling: int&amp;nbsp;&lt;/div&gt;&lt;div&gt;correctLength:&amp;nbsp;&lt;span style=&quot;background-color: initial;&quot;&gt;int&amp;nbsp;&lt;/span&gt;&lt;/div&gt;&lt;div&gt;content:&amp;nbsp;&lt;span style=&quot;background-color: initial;&quot;&gt;int&amp;nbsp;&lt;/span&gt;&lt;/div&gt;" style="text;strokeColor=none;fillColor=none;align=left;verticalAlign=top;spacingLeft=4;spacingRight=4;overflow=hidden;rotatable=0;points=[[0,0.5],[1,0.5]];portConstraint=eastwest;whiteSpace=wrap;html=1;" vertex="1" parent="AMUbEwbBqHvnxKV83x1e-33">
          <mxGeometry y="26" width="200" height="74" as="geometry" />
        </mxCell>
        <mxCell id="AMUbEwbBqHvnxKV83x1e-35" value="" style="line;strokeWidth=1;fillColor=none;align=left;verticalAlign=middle;spacingTop=-1;spacingLeft=3;spacingRight=3;rotatable=0;labelPosition=right;points=[];portConstraint=eastwest;strokeColor=inherit;" vertex="1" parent="AMUbEwbBqHvnxKV83x1e-33">
          <mxGeometry y="100" width="200" height="8" as="geometry" />
        </mxCell>
        <mxCell id="AMUbEwbBqHvnxKV83x1e-36" value="&lt;div&gt;+ Essay (&lt;span style=&quot;background-color: initial;&quot;&gt;int,&amp;nbsp;&lt;/span&gt;&lt;span style=&quot;background-color: initial;&quot;&gt;int,&amp;nbsp;&lt;/span&gt;&lt;span style=&quot;background-color: initial;&quot;&gt;int,&amp;nbsp;&lt;/span&gt;&lt;span style=&quot;background-color: initial;&quot;&gt;int):&amp;nbsp;&lt;/span&gt;&lt;/div&gt;&lt;div&gt;+ total (int, int,&amp;nbsp;&lt;span style=&quot;background-color: initial;&quot;&gt;int,&amp;nbsp;&lt;/span&gt;&lt;span style=&quot;background-color: initial;&quot;&gt;int&amp;nbsp;&lt;/span&gt;&lt;span style=&quot;background-color: initial;&quot;&gt;): int&lt;/span&gt;&lt;/div&gt;+ getter():&lt;div&gt;+ setter():&lt;/div&gt;&lt;div&gt;+ toString():&lt;/div&gt;" style="text;strokeColor=none;fillColor=none;align=left;verticalAlign=top;spacingLeft=4;spacingRight=4;overflow=hidden;rotatable=0;points=[[0,0.5],[1,0.5]];portConstraint=eastwest;whiteSpace=wrap;html=1;" vertex="1" parent="AMUbEwbBqHvnxKV83x1e-33">
          <mxGeometry y="108" width="200" height="92" as="geometry" />
        </mxCell>
        <mxCell id="AMUbEwbBqHvnxKV83x1e-37" value="Extends" style="endArrow=block;endSize=16;endFill=0;html=1;rounded=0;exitX=-0.012;exitY=0.727;exitDx=0;exitDy=0;exitPerimeter=0;" edge="1" parent="1" source="AMUbEwbBqHvnxKV83x1e-34">
          <mxGeometry width="160" relative="1" as="geometry">
            <mxPoint x="320" y="179.5" as="sourcePoint" />
            <mxPoint x="520" y="120" as="targetPoint" />
          </mxGeometry>
        </mxCell>
        <mxCell id="AMUbEwbBqHvnxKV83x1e-39" value="Q5" style="text;html=1;align=center;verticalAlign=middle;resizable=0;points=[];autosize=1;strokeColor=none;fillColor=none;" vertex="1" parent="1">
          <mxGeometry y="368" width="40" height="30" as="geometry" />
        </mxCell>
        <mxCell id="AMUbEwbBqHvnxKV83x1e-44" value="CourseGrades" style="swimlane;fontStyle=1;align=center;verticalAlign=top;childLayout=stackLayout;horizontal=1;startSize=26;horizontalStack=0;resizeParent=1;resizeParentMax=0;resizeLast=0;collapsible=1;marginBottom=0;whiteSpace=wrap;html=1;" vertex="1" parent="1">
          <mxGeometry x="40" y="38" width="240" height="320" as="geometry" />
        </mxCell>
        <mxCell id="AMUbEwbBqHvnxKV83x1e-45" value="- grades: GradedActivity&amp;nbsp;[ ]&lt;div&gt;- size: int&lt;/div&gt;" style="text;strokeColor=none;fillColor=none;align=left;verticalAlign=top;spacingLeft=4;spacingRight=4;overflow=hidden;rotatable=0;points=[[0,0.5],[1,0.5]];portConstraint=eastwest;whiteSpace=wrap;html=1;" vertex="1" parent="AMUbEwbBqHvnxKV83x1e-44">
          <mxGeometry y="26" width="240" height="134" as="geometry" />
        </mxCell>
        <mxCell id="AMUbEwbBqHvnxKV83x1e-46" value="" style="line;strokeWidth=1;fillColor=none;align=left;verticalAlign=middle;spacingTop=-1;spacingLeft=3;spacingRight=3;rotatable=0;labelPosition=right;points=[];portConstraint=eastwest;strokeColor=inherit;" vertex="1" parent="AMUbEwbBqHvnxKV83x1e-44">
          <mxGeometry y="160" width="240" height="8" as="geometry" />
        </mxCell>
        <mxCell id="AMUbEwbBqHvnxKV83x1e-47" value="&lt;div&gt;+ setLab&lt;span style=&quot;background-color: initial;&quot;&gt;(&lt;/span&gt;GradedActivity&amp;nbsp;&lt;span style=&quot;background-color: initial;&quot;&gt;): void&lt;/span&gt;&lt;/div&gt;&lt;div&gt;+ setPassFailExam&lt;span style=&quot;background-color: initial;&quot;&gt;(&lt;/span&gt;GradedActivity&amp;nbsp;&lt;span style=&quot;background-color: initial;&quot;&gt;): void&lt;/span&gt;&lt;/div&gt;&lt;div&gt;+ setEssay&lt;span style=&quot;background-color: initial;&quot;&gt;(&lt;/span&gt;GradedActivity&amp;nbsp;&lt;span style=&quot;background-color: initial;&quot;&gt;): void&lt;/span&gt;&lt;/div&gt;&lt;div&gt;+ setFinal(GradedActivity&amp;nbsp;): void&lt;/div&gt;&lt;div&gt;+ toString():&lt;/div&gt;&lt;div&gt;+ getAverage():&lt;/div&gt;&lt;div&gt;+ getLowest():&lt;/div&gt;&lt;div&gt;+ getHighest():&lt;/div&gt;" style="text;strokeColor=none;fillColor=none;align=left;verticalAlign=top;spacingLeft=4;spacingRight=4;overflow=hidden;rotatable=0;points=[[0,0.5],[1,0.5]];portConstraint=eastwest;whiteSpace=wrap;html=1;" vertex="1" parent="AMUbEwbBqHvnxKV83x1e-44">
          <mxGeometry y="168" width="240" height="152" as="geometry" />
        </mxCell>
        <mxCell id="AMUbEwbBqHvnxKV83x1e-48" value="Extends" style="endArrow=block;endSize=16;endFill=0;html=1;rounded=0;exitX=1.017;exitY=0.408;exitDx=0;exitDy=0;entryX=0.004;entryY=0.212;entryDx=0;entryDy=0;entryPerimeter=0;exitPerimeter=0;" edge="1" parent="1" source="AMUbEwbBqHvnxKV83x1e-45" target="AMUbEwbBqHvnxKV83x1e-11">
          <mxGeometry width="160" relative="1" as="geometry">
            <mxPoint x="260" y="350" as="sourcePoint" />
            <mxPoint x="160" y="320" as="targetPoint" />
          </mxGeometry>
        </mxCell>
        <mxCell id="F_AaJumtKvfgd-aV9rhH-1" value="PassFailActivity" style="swimlane;fontStyle=1;align=center;verticalAlign=top;childLayout=stackLayout;horizontal=1;startSize=26;horizontalStack=0;resizeParent=1;resizeParentMax=0;resizeLast=0;collapsible=1;marginBottom=0;whiteSpace=wrap;html=1;" vertex="1" parent="1">
          <mxGeometry x="600" y="600" width="200" height="312" as="geometry" />
        </mxCell>
        <mxCell id="F_AaJumtKvfgd-aV9rhH-2" value="-&amp;nbsp;minPassingScore: double&lt;div&gt;&lt;br&gt;&lt;/div&gt;" style="text;strokeColor=none;fillColor=none;align=left;verticalAlign=top;spacingLeft=4;spacingRight=4;overflow=hidden;rotatable=0;points=[[0,0.5],[1,0.5]];portConstraint=eastwest;whiteSpace=wrap;html=1;" vertex="1" parent="F_AaJumtKvfgd-aV9rhH-1">
          <mxGeometry y="26" width="200" height="54" as="geometry" />
        </mxCell>
        <mxCell id="F_AaJumtKvfgd-aV9rhH-3" value="" style="line;strokeWidth=1;fillColor=none;align=left;verticalAlign=middle;spacingTop=-1;spacingLeft=3;spacingRight=3;rotatable=0;labelPosition=right;points=[];portConstraint=eastwest;strokeColor=inherit;" vertex="1" parent="F_AaJumtKvfgd-aV9rhH-1">
          <mxGeometry y="80" width="200" height="8" as="geometry" />
        </mxCell>
        <mxCell id="n8zmMq5oC63p1QwlLilt-26" value="+&amp;nbsp;PassFailActivity(double):&amp;nbsp;&lt;div&gt;+&amp;nbsp;&lt;span style=&quot;background-color: initial;&quot;&gt;getGrade(): char&lt;/span&gt;&lt;/div&gt;&lt;div&gt;&lt;span style=&quot;background-color: initial;&quot;&gt;+&amp;nbsp;&lt;/span&gt;&lt;span style=&quot;background-color: initial;&quot;&gt;toString():&amp;nbsp;&lt;/span&gt;&lt;/div&gt;" style="text;strokeColor=none;fillColor=none;align=left;verticalAlign=top;spacingLeft=4;spacingRight=4;overflow=hidden;rotatable=0;points=[[0,0.5],[1,0.5]];portConstraint=eastwest;whiteSpace=wrap;html=1;" vertex="1" parent="F_AaJumtKvfgd-aV9rhH-1">
          <mxGeometry y="88" width="200" height="112" as="geometry" />
        </mxCell>
        <mxCell id="F_AaJumtKvfgd-aV9rhH-4" value="+&amp;nbsp;PassFailActivity(double):&amp;nbsp;&lt;div&gt;+&amp;nbsp;&lt;span style=&quot;background-color: initial;&quot;&gt;getGrade(): char&lt;/span&gt;&lt;/div&gt;&lt;div&gt;&lt;span style=&quot;background-color: initial;&quot;&gt;+&amp;nbsp;&lt;/span&gt;&lt;span style=&quot;background-color: initial;&quot;&gt;toString():&amp;nbsp;&lt;/span&gt;&lt;/div&gt;" style="text;strokeColor=none;fillColor=none;align=left;verticalAlign=top;spacingLeft=4;spacingRight=4;overflow=hidden;rotatable=0;points=[[0,0.5],[1,0.5]];portConstraint=eastwest;whiteSpace=wrap;html=1;" vertex="1" parent="F_AaJumtKvfgd-aV9rhH-1">
          <mxGeometry y="200" width="200" height="112" as="geometry" />
        </mxCell>
        <mxCell id="F_AaJumtKvfgd-aV9rhH-9" value="Extends" style="endArrow=block;endSize=16;endFill=0;html=1;rounded=0;exitX=-0.017;exitY=0.008;exitDx=0;exitDy=0;exitPerimeter=0;entryX=0.986;entryY=0.844;entryDx=0;entryDy=0;entryPerimeter=0;" edge="1" parent="1" source="F_AaJumtKvfgd-aV9rhH-2" target="AMUbEwbBqHvnxKV83x1e-13">
          <mxGeometry x="-0.0068" width="160" relative="1" as="geometry">
            <mxPoint x="470" y="460" as="sourcePoint" />
            <mxPoint x="610" y="370" as="targetPoint" />
            <Array as="points" />
            <mxPoint as="offset" />
          </mxGeometry>
        </mxCell>
        <mxCell id="n8zmMq5oC63p1QwlLilt-1" value="FinalExam" style="swimlane;fontStyle=1;align=center;verticalAlign=top;childLayout=stackLayout;horizontal=1;startSize=26;horizontalStack=0;resizeParent=1;resizeParentMax=0;resizeLast=0;collapsible=1;marginBottom=0;whiteSpace=wrap;html=1;" vertex="1" parent="1">
          <mxGeometry x="600" y="250" width="200" height="170" as="geometry" />
        </mxCell>
        <mxCell id="n8zmMq5oC63p1QwlLilt-2" value="&lt;div&gt;- numQuestions: int&lt;/div&gt;&lt;div&gt;- pointsEach: double&lt;/div&gt;&lt;div&gt;- numMissed: int&lt;/div&gt;&lt;div&gt;- numericScore: double&lt;br&gt;&lt;/div&gt;" style="text;strokeColor=none;fillColor=none;align=left;verticalAlign=top;spacingLeft=4;spacingRight=4;overflow=hidden;rotatable=0;points=[[0,0.5],[1,0.5]];portConstraint=eastwest;whiteSpace=wrap;html=1;" vertex="1" parent="n8zmMq5oC63p1QwlLilt-1">
          <mxGeometry y="26" width="200" height="74" as="geometry" />
        </mxCell>
        <mxCell id="n8zmMq5oC63p1QwlLilt-3" value="" style="line;strokeWidth=1;fillColor=none;align=left;verticalAlign=middle;spacingTop=-1;spacingLeft=3;spacingRight=3;rotatable=0;labelPosition=right;points=[];portConstraint=eastwest;strokeColor=inherit;" vertex="1" parent="n8zmMq5oC63p1QwlLilt-1">
          <mxGeometry y="100" width="200" height="8" as="geometry" />
        </mxCell>
        <mxCell id="n8zmMq5oC63p1QwlLilt-4" value="+ getPointsEach(): double&amp;nbsp;&lt;div&gt;+ getNumMissed(): int&lt;/div&gt;&lt;div&gt;+ toString():&lt;br&gt;&lt;/div&gt;" style="text;strokeColor=none;fillColor=none;align=left;verticalAlign=top;spacingLeft=4;spacingRight=4;overflow=hidden;rotatable=0;points=[[0,0.5],[1,0.5]];portConstraint=eastwest;whiteSpace=wrap;html=1;" vertex="1" parent="n8zmMq5oC63p1QwlLilt-1">
          <mxGeometry y="108" width="200" height="62" as="geometry" />
        </mxCell>
        <mxCell id="n8zmMq5oC63p1QwlLilt-5" value="PassFailExam" style="swimlane;fontStyle=1;align=center;verticalAlign=top;childLayout=stackLayout;horizontal=1;startSize=26;horizontalStack=0;resizeParent=1;resizeParentMax=0;resizeLast=0;collapsible=1;marginBottom=0;whiteSpace=wrap;html=1;" vertex="1" parent="1">
          <mxGeometry x="80" y="660" width="240" height="210" as="geometry" />
        </mxCell>
        <mxCell id="n8zmMq5oC63p1QwlLilt-6" value="&lt;div&gt;- numQuestions: int&lt;/div&gt;&lt;div&gt;- pointsEach: double&lt;/div&gt;&lt;div&gt;- numMissed: int&lt;/div&gt;" style="text;strokeColor=none;fillColor=none;align=left;verticalAlign=top;spacingLeft=4;spacingRight=4;overflow=hidden;rotatable=0;points=[[0,0.5],[1,0.5]];portConstraint=eastwest;whiteSpace=wrap;html=1;" vertex="1" parent="n8zmMq5oC63p1QwlLilt-5">
          <mxGeometry y="26" width="240" height="84" as="geometry" />
        </mxCell>
        <mxCell id="n8zmMq5oC63p1QwlLilt-7" value="" style="line;strokeWidth=1;fillColor=none;align=left;verticalAlign=middle;spacingTop=-1;spacingLeft=3;spacingRight=3;rotatable=0;labelPosition=right;points=[];portConstraint=eastwest;strokeColor=inherit;" vertex="1" parent="n8zmMq5oC63p1QwlLilt-5">
          <mxGeometry y="110" width="240" height="8" as="geometry" />
        </mxCell>
        <mxCell id="n8zmMq5oC63p1QwlLilt-8" value="-&amp;nbsp;&lt;span style=&quot;text-align: center;&quot;&gt;PassFailExam(int, int, double):&amp;nbsp;&lt;/span&gt;&lt;div&gt;+ getPointsEach(): double&amp;nbsp;&lt;div&gt;+ getNumMissed(): int&lt;/div&gt;&lt;div&gt;+ toString():&lt;/div&gt;&lt;/div&gt;" style="text;strokeColor=none;fillColor=none;align=left;verticalAlign=top;spacingLeft=4;spacingRight=4;overflow=hidden;rotatable=0;points=[[0,0.5],[1,0.5]];portConstraint=eastwest;whiteSpace=wrap;html=1;" vertex="1" parent="n8zmMq5oC63p1QwlLilt-5">
          <mxGeometry y="118" width="240" height="92" as="geometry" />
        </mxCell>
        <mxCell id="n8zmMq5oC63p1QwlLilt-14" value="Extends" style="endArrow=block;endSize=16;endFill=0;html=1;rounded=0;" edge="1" parent="1">
          <mxGeometry x="-0.0063" width="160" relative="1" as="geometry">
            <mxPoint x="599" y="280" as="sourcePoint" />
            <mxPoint x="521" y="280" as="targetPoint" />
            <Array as="points" />
            <mxPoint as="offset" />
          </mxGeometry>
        </mxCell>
        <mxCell id="n8zmMq5oC63p1QwlLilt-19" value="Lab" style="swimlane;fontStyle=1;align=center;verticalAlign=top;childLayout=stackLayout;horizontal=1;startSize=26;horizontalStack=0;resizeParent=1;resizeParentMax=0;resizeLast=0;collapsible=1;marginBottom=0;whiteSpace=wrap;html=1;" vertex="1" parent="1">
          <mxGeometry x="600" y="435" width="200" height="150" as="geometry">
            <mxRectangle x="680" y="490" width="60" height="30" as="alternateBounds" />
          </mxGeometry>
        </mxCell>
        <mxCell id="n8zmMq5oC63p1QwlLilt-20" value="-&amp;nbsp;score(): double" style="text;strokeColor=none;fillColor=none;align=left;verticalAlign=top;spacingLeft=4;spacingRight=4;overflow=hidden;rotatable=0;points=[[0,0.5],[1,0.5]];portConstraint=eastwest;whiteSpace=wrap;html=1;" vertex="1" parent="n8zmMq5oC63p1QwlLilt-19">
          <mxGeometry y="26" width="200" height="54" as="geometry" />
        </mxCell>
        <mxCell id="n8zmMq5oC63p1QwlLilt-21" value="" style="line;strokeWidth=1;fillColor=none;align=left;verticalAlign=middle;spacingTop=-1;spacingLeft=3;spacingRight=3;rotatable=0;labelPosition=right;points=[];portConstraint=eastwest;strokeColor=inherit;" vertex="1" parent="n8zmMq5oC63p1QwlLilt-19">
          <mxGeometry y="80" width="200" height="8" as="geometry" />
        </mxCell>
        <mxCell id="n8zmMq5oC63p1QwlLilt-22" value="+ Lab(double):&lt;br&gt;&lt;div&gt;&lt;span style=&quot;background-color: initial;&quot;&gt;+ toString():&lt;/span&gt;&amp;nbsp;&lt;/div&gt;" style="text;strokeColor=none;fillColor=none;align=left;verticalAlign=top;spacingLeft=4;spacingRight=4;overflow=hidden;rotatable=0;points=[[0,0.5],[1,0.5]];portConstraint=eastwest;whiteSpace=wrap;html=1;" vertex="1" parent="n8zmMq5oC63p1QwlLilt-19">
          <mxGeometry y="88" width="200" height="62" as="geometry" />
        </mxCell>
        <mxCell id="n8zmMq5oC63p1QwlLilt-23" value="Extends" style="endArrow=block;endSize=16;endFill=0;html=1;rounded=0;exitX=0;exitY=0.5;exitDx=0;exitDy=0;entryX=1.029;entryY=0.461;entryDx=0;entryDy=0;entryPerimeter=0;" edge="1" parent="1" source="n8zmMq5oC63p1QwlLilt-20" target="AMUbEwbBqHvnxKV83x1e-13">
          <mxGeometry x="-0.0063" width="160" relative="1" as="geometry">
            <mxPoint x="680" y="554" as="sourcePoint" />
            <mxPoint x="602" y="550" as="targetPoint" />
            <Array as="points" />
            <mxPoint as="offset" />
          </mxGeometry>
        </mxCell>
        <mxCell id="n8zmMq5oC63p1QwlLilt-24" value="Extends" style="endArrow=block;endSize=16;endFill=0;html=1;rounded=0;exitX=0.999;exitY=0.59;exitDx=0;exitDy=0;exitPerimeter=0;entryX=-0.014;entryY=0.424;entryDx=0;entryDy=0;entryPerimeter=0;" edge="1" parent="1" source="n8zmMq5oC63p1QwlLilt-6" target="n8zmMq5oC63p1QwlLilt-26">
          <mxGeometry x="-0.0068" width="160" relative="1" as="geometry">
            <mxPoint x="650" y="930" as="sourcePoint" />
            <mxPoint x="690" y="876" as="targetPoint" />
            <Array as="points" />
            <mxPoint as="offset" />
          </mxGeometry>
        </mxCell>
        <mxCell id="n8zmMq5oC63p1QwlLilt-27" value="Classname" style="swimlane;fontStyle=1;align=center;verticalAlign=top;childLayout=stackLayout;horizontal=1;startSize=26;horizontalStack=0;resizeParent=1;resizeParentMax=0;resizeLast=0;collapsible=1;marginBottom=0;whiteSpace=wrap;html=1;" vertex="1" parent="1">
          <mxGeometry x="1680" y="174" width="160" height="86" as="geometry" />
        </mxCell>
        <mxCell id="n8zmMq5oC63p1QwlLilt-28" value="+ field: type" style="text;strokeColor=none;fillColor=none;align=left;verticalAlign=top;spacingLeft=4;spacingRight=4;overflow=hidden;rotatable=0;points=[[0,0.5],[1,0.5]];portConstraint=eastwest;whiteSpace=wrap;html=1;" vertex="1" parent="n8zmMq5oC63p1QwlLilt-27">
          <mxGeometry y="26" width="160" height="26" as="geometry" />
        </mxCell>
        <mxCell id="n8zmMq5oC63p1QwlLilt-29" value="" style="line;strokeWidth=1;fillColor=none;align=left;verticalAlign=middle;spacingTop=-1;spacingLeft=3;spacingRight=3;rotatable=0;labelPosition=right;points=[];portConstraint=eastwest;strokeColor=inherit;" vertex="1" parent="n8zmMq5oC63p1QwlLilt-27">
          <mxGeometry y="52" width="160" height="8" as="geometry" />
        </mxCell>
        <mxCell id="n8zmMq5oC63p1QwlLilt-30" value="+ method(type): type" style="text;strokeColor=none;fillColor=none;align=left;verticalAlign=top;spacingLeft=4;spacingRight=4;overflow=hidden;rotatable=0;points=[[0,0.5],[1,0.5]];portConstraint=eastwest;whiteSpace=wrap;html=1;" vertex="1" parent="n8zmMq5oC63p1QwlLilt-27">
          <mxGeometry y="60" width="160" height="26" as="geometry" />
        </mxCell>
        <mxCell id="7CAGGveitMY4pvbxknYL-1" value="Q7" style="text;html=1;align=center;verticalAlign=middle;resizable=0;points=[];autosize=1;strokeColor=none;fillColor=none;" vertex="1" parent="1">
          <mxGeometry x="840" y="10" width="40" height="30" as="geometry" />
        </mxCell>
        <mxCell id="7CAGGveitMY4pvbxknYL-2" value="Customer" style="swimlane;fontStyle=1;align=center;verticalAlign=top;childLayout=stackLayout;horizontal=1;startSize=26;horizontalStack=0;resizeParent=1;resizeParentMax=0;resizeLast=0;collapsible=1;marginBottom=0;whiteSpace=wrap;html=1;" vertex="1" parent="1">
          <mxGeometry x="1160" y="40" width="170" height="240" as="geometry" />
        </mxCell>
        <mxCell id="7CAGGveitMY4pvbxknYL-3" value="- id: String&lt;div&gt;- isInMailingList: boolean&lt;/div&gt;" style="text;strokeColor=none;fillColor=none;align=left;verticalAlign=top;spacingLeft=4;spacingRight=4;overflow=hidden;rotatable=0;points=[[0,0.5],[1,0.5]];portConstraint=eastwest;whiteSpace=wrap;html=1;" vertex="1" parent="7CAGGveitMY4pvbxknYL-2">
          <mxGeometry y="26" width="170" height="94" as="geometry" />
        </mxCell>
        <mxCell id="7CAGGveitMY4pvbxknYL-4" value="" style="line;strokeWidth=1;fillColor=none;align=left;verticalAlign=middle;spacingTop=-1;spacingLeft=3;spacingRight=3;rotatable=0;labelPosition=right;points=[];portConstraint=eastwest;strokeColor=inherit;" vertex="1" parent="7CAGGveitMY4pvbxknYL-2">
          <mxGeometry y="120" width="170" height="8" as="geometry" />
        </mxCell>
        <mxCell id="7CAGGveitMY4pvbxknYL-5" value="+ Customer():&lt;div&gt;+&amp;nbsp;&lt;span style=&quot;background-color: initial;&quot;&gt;Customer(String, boolean):&lt;/span&gt;&lt;/div&gt;&lt;div&gt;&lt;div&gt;+ Getter/setter():&lt;/div&gt;&lt;div&gt;+ toString():&lt;/div&gt;&lt;/div&gt;" style="text;strokeColor=none;fillColor=none;align=left;verticalAlign=top;spacingLeft=4;spacingRight=4;overflow=hidden;rotatable=0;points=[[0,0.5],[1,0.5]];portConstraint=eastwest;whiteSpace=wrap;html=1;" vertex="1" parent="7CAGGveitMY4pvbxknYL-2">
          <mxGeometry y="128" width="170" height="112" as="geometry" />
        </mxCell>
        <mxCell id="7CAGGveitMY4pvbxknYL-6" value="PreferredCustomer" style="swimlane;fontStyle=1;align=center;verticalAlign=top;childLayout=stackLayout;horizontal=1;startSize=26;horizontalStack=0;resizeParent=1;resizeParentMax=0;resizeLast=0;collapsible=1;marginBottom=0;whiteSpace=wrap;html=1;" vertex="1" parent="1">
          <mxGeometry x="1410" y="40" width="220" height="240" as="geometry" />
        </mxCell>
        <mxCell id="7CAGGveitMY4pvbxknYL-7" value="&lt;div&gt;- purchasesAmount:&amp;nbsp; double&lt;/div&gt;&lt;div&gt;- discountLevel: double&lt;/div&gt;" style="text;strokeColor=none;fillColor=none;align=left;verticalAlign=top;spacingLeft=4;spacingRight=4;overflow=hidden;rotatable=0;points=[[0,0.5],[1,0.5]];portConstraint=eastwest;whiteSpace=wrap;html=1;" vertex="1" parent="7CAGGveitMY4pvbxknYL-6">
          <mxGeometry y="26" width="220" height="94" as="geometry" />
        </mxCell>
        <mxCell id="7CAGGveitMY4pvbxknYL-8" value="" style="line;strokeWidth=1;fillColor=none;align=left;verticalAlign=middle;spacingTop=-1;spacingLeft=3;spacingRight=3;rotatable=0;labelPosition=right;points=[];portConstraint=eastwest;strokeColor=inherit;" vertex="1" parent="7CAGGveitMY4pvbxknYL-6">
          <mxGeometry y="120" width="220" height="8" as="geometry" />
        </mxCell>
        <mxCell id="7CAGGveitMY4pvbxknYL-9" value="+&amp;nbsp;&lt;span style=&quot;background-color: initial;&quot;&gt;PreferredCustomer():&lt;/span&gt;&lt;div&gt;&lt;span style=&quot;background-color: initial;&quot;&gt;+&amp;nbsp;&lt;/span&gt;&lt;span style=&quot;background-color: initial;&quot;&gt;PreferredCustomer(double, double):&lt;/span&gt;&lt;/div&gt;&lt;div&gt;&lt;span style=&quot;background-color: initial;&quot;&gt;+ discount(): void&lt;/span&gt;&lt;/div&gt;&lt;div&gt;&lt;div&gt;+ Getter/setter():&lt;/div&gt;&lt;div&gt;+ toString():&lt;/div&gt;&lt;/div&gt;" style="text;strokeColor=none;fillColor=none;align=left;verticalAlign=top;spacingLeft=4;spacingRight=4;overflow=hidden;rotatable=0;points=[[0,0.5],[1,0.5]];portConstraint=eastwest;whiteSpace=wrap;html=1;" vertex="1" parent="7CAGGveitMY4pvbxknYL-6">
          <mxGeometry y="128" width="220" height="112" as="geometry" />
        </mxCell>
        <mxCell id="hg5Xp6hGjW5IOFtL89sK-2" value="Extends" style="endArrow=block;endSize=16;endFill=0;html=1;rounded=0;exitX=0;exitY=0.5;exitDx=0;exitDy=0;entryX=1;entryY=0.5;entryDx=0;entryDy=0;" edge="1" parent="1" source="7CAGGveitMY4pvbxknYL-3" target="AMUbEwbBqHvnxKV83x1e-17">
          <mxGeometry width="160" relative="1" as="geometry">
            <mxPoint x="1188" y="124" as="sourcePoint" />
            <mxPoint x="1110" y="126" as="targetPoint" />
            <mxPoint as="offset" />
          </mxGeometry>
        </mxCell>
        <mxCell id="hg5Xp6hGjW5IOFtL89sK-3" value="Extends" style="endArrow=block;endSize=16;endFill=0;html=1;rounded=0;entryX=1;entryY=0.5;entryDx=0;entryDy=0;exitX=0;exitY=0.5;exitDx=0;exitDy=0;" edge="1" parent="1" source="7CAGGveitMY4pvbxknYL-7" target="7CAGGveitMY4pvbxknYL-3">
          <mxGeometry x="-0.1429" y="-3" width="160" relative="1" as="geometry">
            <mxPoint x="1390" y="90" as="sourcePoint" />
            <mxPoint x="1330" y="110" as="targetPoint" />
            <mxPoint as="offset" />
          </mxGeometry>
        </mxCell>
        <mxCell id="hg5Xp6hGjW5IOFtL89sK-4" value="Q8" style="text;html=1;align=center;verticalAlign=middle;resizable=0;points=[];autosize=1;strokeColor=none;fillColor=none;" vertex="1" parent="1">
          <mxGeometry x="1360" y="10" width="40" height="30" as="geometry" />
        </mxCell>
        <mxCell id="hg5Xp6hGjW5IOFtL89sK-5" value="&lt;div&gt;&lt;i&gt;&amp;lt;&amp;lt;Abstract&amp;gt;&amp;gt;&lt;/i&gt;&lt;/div&gt;BankAccount" style="swimlane;fontStyle=1;align=center;verticalAlign=top;childLayout=stackLayout;horizontal=1;startSize=42;horizontalStack=0;resizeParent=1;resizeParentMax=0;resizeLast=0;collapsible=1;marginBottom=0;whiteSpace=wrap;html=1;" vertex="1" parent="1">
          <mxGeometry x="880" y="358" width="200" height="310" as="geometry" />
        </mxCell>
        <mxCell id="hg5Xp6hGjW5IOFtL89sK-6" value="- balance: double&lt;div&gt;- NumOfDepositsThisMonth: int&lt;/div&gt;&lt;div&gt;- numOfWithdrawals: int&lt;/div&gt;&lt;div&gt;- interestRateA&lt;span style=&quot;background-color: initial;&quot;&gt;nnual: double&lt;/span&gt;&lt;/div&gt;&lt;div&gt;&lt;span style=&quot;background-color: initial;&quot;&gt;-&amp;nbsp;&lt;/span&gt;&lt;span style=&quot;background-color: initial;&quot;&gt;monthlyServiceCharges: double&lt;/span&gt;&lt;/div&gt;" style="text;strokeColor=none;fillColor=none;align=left;verticalAlign=top;spacingLeft=4;spacingRight=4;overflow=hidden;rotatable=0;points=[[0,0.5],[1,0.5]];portConstraint=eastwest;whiteSpace=wrap;html=1;" vertex="1" parent="hg5Xp6hGjW5IOFtL89sK-5">
          <mxGeometry y="42" width="200" height="118" as="geometry" />
        </mxCell>
        <mxCell id="hg5Xp6hGjW5IOFtL89sK-7" value="" style="line;strokeWidth=1;fillColor=none;align=left;verticalAlign=middle;spacingTop=-1;spacingLeft=3;spacingRight=3;rotatable=0;labelPosition=right;points=[];portConstraint=eastwest;strokeColor=inherit;" vertex="1" parent="hg5Xp6hGjW5IOFtL89sK-5">
          <mxGeometry y="160" width="200" height="8" as="geometry" />
        </mxCell>
        <mxCell id="hg5Xp6hGjW5IOFtL89sK-8" value="+ Constructor():&lt;div&gt;+ deposit&lt;span style=&quot;background-color: initial;&quot;&gt;():&lt;/span&gt;&lt;/div&gt;&lt;div&gt;+ withdraw&lt;span style=&quot;background-color: initial;&quot;&gt;():&lt;/span&gt;&lt;/div&gt;&lt;div&gt;+ calcInterest&lt;span style=&quot;background-color: initial;&quot;&gt;():&lt;/span&gt;&lt;/div&gt;&lt;div&gt;+ monthlyProcess&lt;span style=&quot;background-color: initial;&quot;&gt;():&lt;/span&gt;&lt;/div&gt;&lt;div&gt;+ Getter/setter():&lt;span style=&quot;background-color: initial;&quot;&gt;&lt;br&gt;&lt;/span&gt;&lt;/div&gt;&lt;div&gt;&lt;div&gt;&lt;span style=&quot;background-color: initial;&quot;&gt;+ toString():&lt;/span&gt;&lt;/div&gt;&lt;/div&gt;&lt;div&gt;&lt;span style=&quot;background-color: initial;&quot;&gt;&lt;br&gt;&lt;/span&gt;&lt;/div&gt;" style="text;strokeColor=none;fillColor=none;align=left;verticalAlign=top;spacingLeft=4;spacingRight=4;overflow=hidden;rotatable=0;points=[[0,0.5],[1,0.5]];portConstraint=eastwest;whiteSpace=wrap;html=1;" vertex="1" parent="hg5Xp6hGjW5IOFtL89sK-5">
          <mxGeometry y="168" width="200" height="142" as="geometry" />
        </mxCell>
        <mxCell id="hg5Xp6hGjW5IOFtL89sK-9" value="Q9" style="text;html=1;align=center;verticalAlign=middle;resizable=0;points=[];autosize=1;strokeColor=none;fillColor=none;" vertex="1" parent="1">
          <mxGeometry x="840" y="328" width="40" height="30" as="geometry" />
        </mxCell>
        <mxCell id="hg5Xp6hGjW5IOFtL89sK-10" value="SavingsAccount" style="swimlane;fontStyle=1;align=center;verticalAlign=top;childLayout=stackLayout;horizontal=1;startSize=26;horizontalStack=0;resizeParent=1;resizeParentMax=0;resizeLast=0;collapsible=1;marginBottom=0;whiteSpace=wrap;html=1;" vertex="1" parent="1">
          <mxGeometry x="1240" y="358" width="200" height="310" as="geometry" />
        </mxCell>
        <mxCell id="hg5Xp6hGjW5IOFtL89sK-11" value="- isActive: boolean" style="text;strokeColor=none;fillColor=none;align=left;verticalAlign=top;spacingLeft=4;spacingRight=4;overflow=hidden;rotatable=0;points=[[0,0.5],[1,0.5]];portConstraint=eastwest;whiteSpace=wrap;html=1;" vertex="1" parent="hg5Xp6hGjW5IOFtL89sK-10">
          <mxGeometry y="26" width="200" height="134" as="geometry" />
        </mxCell>
        <mxCell id="hg5Xp6hGjW5IOFtL89sK-12" value="" style="line;strokeWidth=1;fillColor=none;align=left;verticalAlign=middle;spacingTop=-1;spacingLeft=3;spacingRight=3;rotatable=0;labelPosition=right;points=[];portConstraint=eastwest;strokeColor=inherit;" vertex="1" parent="hg5Xp6hGjW5IOFtL89sK-10">
          <mxGeometry y="160" width="200" height="8" as="geometry" />
        </mxCell>
        <mxCell id="hg5Xp6hGjW5IOFtL89sK-13" value="&lt;div&gt;+ Constructors():&lt;/div&gt;&lt;div&gt;+ status():&amp;nbsp;&lt;/div&gt;+ withdraw&lt;span style=&quot;background-color: initial;&quot;&gt;():&lt;/span&gt;&lt;div&gt;+ deposit&lt;span style=&quot;background-color: initial;&quot;&gt;():&lt;/span&gt;&lt;span style=&quot;background-color: initial;&quot;&gt;&lt;br&gt;&lt;/span&gt;&lt;/div&gt;&lt;div&gt;+ monthlyProcess&lt;span style=&quot;background-color: initial;&quot;&gt;():&lt;/span&gt;&lt;span style=&quot;background-color: initial;&quot;&gt;&lt;br&gt;&lt;/span&gt;&lt;/div&gt;&lt;div&gt;&lt;span style=&quot;background-color: initial;&quot;&gt;+ toString():&lt;/span&gt;&lt;/div&gt;&lt;div&gt;&lt;span style=&quot;background-color: initial;&quot;&gt;+ print():&lt;/span&gt;&lt;/div&gt;&lt;div&gt;+ Getter/setter():&lt;span style=&quot;background-color: initial;&quot;&gt;&lt;br&gt;&lt;/span&gt;&lt;/div&gt;" style="text;strokeColor=none;fillColor=none;align=left;verticalAlign=top;spacingLeft=4;spacingRight=4;overflow=hidden;rotatable=0;points=[[0,0.5],[1,0.5]];portConstraint=eastwest;whiteSpace=wrap;html=1;" vertex="1" parent="hg5Xp6hGjW5IOFtL89sK-10">
          <mxGeometry y="168" width="200" height="142" as="geometry" />
        </mxCell>
        <mxCell id="hg5Xp6hGjW5IOFtL89sK-14" value="Extends" style="endArrow=block;endSize=16;endFill=0;html=1;rounded=0;exitX=0.006;exitY=0.559;exitDx=0;exitDy=0;entryX=1;entryY=0.5;entryDx=0;entryDy=0;exitPerimeter=0;" edge="1" parent="1" source="hg5Xp6hGjW5IOFtL89sK-11" target="hg5Xp6hGjW5IOFtL89sK-6">
          <mxGeometry width="160" relative="1" as="geometry">
            <mxPoint x="1180" y="412.5" as="sourcePoint" />
            <mxPoint x="1100" y="412.5" as="targetPoint" />
            <mxPoint as="offset" />
          </mxGeometry>
        </mxCell>
        <mxCell id="hg5Xp6hGjW5IOFtL89sK-15" value="CruiseShip" style="swimlane;fontStyle=1;align=center;verticalAlign=top;childLayout=stackLayout;horizontal=1;startSize=26;horizontalStack=0;resizeParent=1;resizeParentMax=0;resizeLast=0;collapsible=1;marginBottom=0;whiteSpace=wrap;html=1;" vertex="1" parent="1">
          <mxGeometry x="880" y="760" width="160" height="200" as="geometry" />
        </mxCell>
        <mxCell id="hg5Xp6hGjW5IOFtL89sK-16" value="-&amp;nbsp;maxPassengers: int" style="text;strokeColor=none;fillColor=none;align=left;verticalAlign=top;spacingLeft=4;spacingRight=4;overflow=hidden;rotatable=0;points=[[0,0.5],[1,0.5]];portConstraint=eastwest;whiteSpace=wrap;html=1;" vertex="1" parent="hg5Xp6hGjW5IOFtL89sK-15">
          <mxGeometry y="26" width="160" height="94" as="geometry" />
        </mxCell>
        <mxCell id="hg5Xp6hGjW5IOFtL89sK-17" value="" style="line;strokeWidth=1;fillColor=none;align=left;verticalAlign=middle;spacingTop=-1;spacingLeft=3;spacingRight=3;rotatable=0;labelPosition=right;points=[];portConstraint=eastwest;strokeColor=inherit;" vertex="1" parent="hg5Xp6hGjW5IOFtL89sK-15">
          <mxGeometry y="120" width="160" height="8" as="geometry" />
        </mxCell>
        <mxCell id="hg5Xp6hGjW5IOFtL89sK-18" value="+ Constructor():&lt;div&gt;+ Getter/setter():&lt;br&gt;&lt;/div&gt;&lt;div&gt;&lt;div&gt;&lt;span style=&quot;background-color: initial;&quot;&gt;+ toString():&lt;/span&gt;&lt;/div&gt;&lt;/div&gt;&lt;div&gt;&lt;span style=&quot;background-color: initial;&quot;&gt;&lt;br&gt;&lt;/span&gt;&lt;/div&gt;" style="text;strokeColor=none;fillColor=none;align=left;verticalAlign=top;spacingLeft=4;spacingRight=4;overflow=hidden;rotatable=0;points=[[0,0.5],[1,0.5]];portConstraint=eastwest;whiteSpace=wrap;html=1;" vertex="1" parent="hg5Xp6hGjW5IOFtL89sK-15">
          <mxGeometry y="128" width="160" height="72" as="geometry" />
        </mxCell>
        <mxCell id="hg5Xp6hGjW5IOFtL89sK-19" value="Q10" style="text;html=1;align=center;verticalAlign=middle;resizable=0;points=[];autosize=1;strokeColor=none;fillColor=none;" vertex="1" parent="1">
          <mxGeometry x="835" y="730" width="50" height="30" as="geometry" />
        </mxCell>
        <mxCell id="hg5Xp6hGjW5IOFtL89sK-20" value="Ship" style="swimlane;fontStyle=1;align=center;verticalAlign=top;childLayout=stackLayout;horizontal=1;startSize=26;horizontalStack=0;resizeParent=1;resizeParentMax=0;resizeLast=0;collapsible=1;marginBottom=0;whiteSpace=wrap;html=1;" vertex="1" parent="1">
          <mxGeometry x="1160" y="760" width="160" height="200" as="geometry" />
        </mxCell>
        <mxCell id="hg5Xp6hGjW5IOFtL89sK-21" value="-&amp;nbsp;yearBuilt: String&lt;div&gt;- name: String&lt;/div&gt;" style="text;strokeColor=none;fillColor=none;align=left;verticalAlign=top;spacingLeft=4;spacingRight=4;overflow=hidden;rotatable=0;points=[[0,0.5],[1,0.5]];portConstraint=eastwest;whiteSpace=wrap;html=1;" vertex="1" parent="hg5Xp6hGjW5IOFtL89sK-20">
          <mxGeometry y="26" width="160" height="94" as="geometry" />
        </mxCell>
        <mxCell id="hg5Xp6hGjW5IOFtL89sK-22" value="" style="line;strokeWidth=1;fillColor=none;align=left;verticalAlign=middle;spacingTop=-1;spacingLeft=3;spacingRight=3;rotatable=0;labelPosition=right;points=[];portConstraint=eastwest;strokeColor=inherit;" vertex="1" parent="hg5Xp6hGjW5IOFtL89sK-20">
          <mxGeometry y="120" width="160" height="8" as="geometry" />
        </mxCell>
        <mxCell id="hg5Xp6hGjW5IOFtL89sK-23" value="+ Constructor():&lt;div&gt;+ Getter/setter():&lt;br&gt;&lt;/div&gt;&lt;div&gt;&lt;span style=&quot;background-color: initial;&quot;&gt;+ toString():&lt;/span&gt;&lt;/div&gt;&lt;div&gt;&lt;span style=&quot;background-color: initial;&quot;&gt;&lt;br&gt;&lt;/span&gt;&lt;/div&gt;" style="text;strokeColor=none;fillColor=none;align=left;verticalAlign=top;spacingLeft=4;spacingRight=4;overflow=hidden;rotatable=0;points=[[0,0.5],[1,0.5]];portConstraint=eastwest;whiteSpace=wrap;html=1;" vertex="1" parent="hg5Xp6hGjW5IOFtL89sK-20">
          <mxGeometry y="128" width="160" height="72" as="geometry" />
        </mxCell>
        <mxCell id="hg5Xp6hGjW5IOFtL89sK-24" value="CargoShip" style="swimlane;fontStyle=1;align=center;verticalAlign=top;childLayout=stackLayout;horizontal=1;startSize=26;horizontalStack=0;resizeParent=1;resizeParentMax=0;resizeLast=0;collapsible=1;marginBottom=0;whiteSpace=wrap;html=1;" vertex="1" parent="1">
          <mxGeometry x="1440" y="760" width="200" height="200" as="geometry" />
        </mxCell>
        <mxCell id="hg5Xp6hGjW5IOFtL89sK-25" value="-&amp;nbsp;cargoCapacityInTonnage: int" style="text;strokeColor=none;fillColor=none;align=left;verticalAlign=top;spacingLeft=4;spacingRight=4;overflow=hidden;rotatable=0;points=[[0,0.5],[1,0.5]];portConstraint=eastwest;whiteSpace=wrap;html=1;" vertex="1" parent="hg5Xp6hGjW5IOFtL89sK-24">
          <mxGeometry y="26" width="200" height="94" as="geometry" />
        </mxCell>
        <mxCell id="hg5Xp6hGjW5IOFtL89sK-26" value="" style="line;strokeWidth=1;fillColor=none;align=left;verticalAlign=middle;spacingTop=-1;spacingLeft=3;spacingRight=3;rotatable=0;labelPosition=right;points=[];portConstraint=eastwest;strokeColor=inherit;" vertex="1" parent="hg5Xp6hGjW5IOFtL89sK-24">
          <mxGeometry y="120" width="200" height="8" as="geometry" />
        </mxCell>
        <mxCell id="hg5Xp6hGjW5IOFtL89sK-27" value="+ Constructor():&lt;div&gt;+ Getter/setter():&lt;br&gt;&lt;/div&gt;&lt;div&gt;&lt;span style=&quot;background-color: initial;&quot;&gt;+ toString():&lt;/span&gt;&lt;/div&gt;&lt;div&gt;&lt;span style=&quot;background-color: initial;&quot;&gt;&lt;br&gt;&lt;/span&gt;&lt;/div&gt;" style="text;strokeColor=none;fillColor=none;align=left;verticalAlign=top;spacingLeft=4;spacingRight=4;overflow=hidden;rotatable=0;points=[[0,0.5],[1,0.5]];portConstraint=eastwest;whiteSpace=wrap;html=1;" vertex="1" parent="hg5Xp6hGjW5IOFtL89sK-24">
          <mxGeometry y="128" width="200" height="72" as="geometry" />
        </mxCell>
        <mxCell id="hg5Xp6hGjW5IOFtL89sK-28" value="Extends" style="endArrow=block;endSize=16;endFill=0;html=1;rounded=0;exitX=0;exitY=0.5;exitDx=0;exitDy=0;entryX=1;entryY=0.5;entryDx=0;entryDy=0;" edge="1" parent="1" source="hg5Xp6hGjW5IOFtL89sK-25" target="hg5Xp6hGjW5IOFtL89sK-21">
          <mxGeometry width="160" relative="1" as="geometry">
            <mxPoint x="1460.5" y="850" as="sourcePoint" />
            <mxPoint x="1299.5" y="850" as="targetPoint" />
            <mxPoint as="offset" />
          </mxGeometry>
        </mxCell>
        <mxCell id="hg5Xp6hGjW5IOFtL89sK-29" value="Extends" style="endArrow=block;endSize=16;endFill=0;html=1;rounded=0;exitX=1;exitY=0.5;exitDx=0;exitDy=0;entryX=0;entryY=0.5;entryDx=0;entryDy=0;" edge="1" parent="1" source="hg5Xp6hGjW5IOFtL89sK-16" target="hg5Xp6hGjW5IOFtL89sK-21">
          <mxGeometry width="160" relative="1" as="geometry">
            <mxPoint x="1240" y="855.5" as="sourcePoint" />
            <mxPoint x="1079" y="855.5" as="targetPoint" />
            <mxPoint as="offset" />
          </mxGeometry>
        </mxCell>
      </root>
    </mxGraphModel>
  </diagram>
</mxfile>
